<svg width="96" height="96" xmlns="http://www.w3.org/2000/svg" xmlns:xlink="http://www.w3.org/1999/xlink" xml:space="preserve" overflow="hidden"><g transform="translate(-432 -222)"><path d="M448.5 304.8C447.8 305.5 446.9 305.7 446 305.3 445.1 304.9 444.6 304.1 444.6 303.2 444.6 302.3 445.2 301.4 446 301.1 446.9 300.7 447.8 300.9 448.5 301.6 449.4 302.4 449.4 303.9 448.5 304.8ZM519.1 238.9 511 247 504.6 245.3 503 239 511.1 230.9C506.3 229.1 500.9 230.2 497.1 233.6 493.3 237.1 491.8 242.3 493.1 247.3L442.1 298.3C440.3 300 439.6 302.6 440.2 305 440.8 307.4 442.7 309.3 445.1 309.9 447.5 310.5 450 309.8 451.8 308L502.8 257C507.8 258.3 513 256.8 516.5 253 519.9 249.2 521 243.7 519.1 238.9Z" fill="#FFFFFF"/><path d="M518.7 298.3 492.9 272.5 482.5 282.9 507.5 307.9 508.4 308.8 508.5 308.7C511.4 310.8 515.4 310.4 517.9 307.9 520.4 305.3 520.7 301.3 518.7 298.3L518.7 298.3Z" fill="#FFFFFF"/><path d="M454.6 241.8 454.7 241.7 452.1 236.9 443.5 230 440 233.5 446.9 242.1 451.7 244.7 451.8 244.6 470.9 263.7 473.7 260.9Z" fill="#FFFFFF"/></g></svg>